<?xml version="1.0" encoding="UTF-8" standalone="no" ?>
<!DOCTYPE svg PUBLIC "-//W3C//DTD SVG 1.1//EN" "http://www.w3.org/Graphics/SVG/1.1/DTD/svg11.dtd">
<svg xmlns="http://www.w3.org/2000/svg" xmlns:xlink="http://www.w3.org/1999/xlink" version="1.1" width="130" height="35" viewBox="0 0 130 35" xml:space="preserve">
<desc>Created with Fabric.js 4.6.0</desc>
<defs>
</defs>
<g transform="matrix(1 0 0 1 65 17.5)" id="s3gtWV48I0gUdyoGug7Gm"  >
<g style="" vector-effect="non-scaling-stroke"   >
		<g transform="matrix(1 0 0 1 14.96 5.76)" id="6yLz4mXFG_9BDnaVht6Sb"  >
<path style="stroke: none; stroke-width: 1; stroke-dasharray: none; stroke-linecap: butt; stroke-dashoffset: 0; stroke-linejoin: miter; stroke-miterlimit: 4; fill: rgb(255,255,255); fill-rule: nonzero; opacity: 1;" vector-effect="non-scaling-stroke"  transform=" translate(-79.96, -23.26)" d="M 39.558 16.892 C 40.118 16.892 40.594 16.9713 40.986 17.13 C 41.378 17.2887 41.7607 17.5127 42.134 17.802 C 42.2367 17.886 42.3253 17.928 42.4 17.928 C 42.5867 17.928 42.708 17.648 42.764 17.088 L 43.086 17.088 C 43.0487 17.7227 43.03 18.852 43.03 20.476 L 42.708 20.476 C 42.624 19.7853 42.512 19.258 42.372 18.894 C 42.232 18.53 41.994 18.2127 41.658 17.942 C 41.4247 17.718 41.154 17.55 40.846 17.438 C 40.538 17.3167 40.216 17.256 39.88 17.256 C 38.9373 17.256 38.2373 17.718 37.78 18.642 C 37.3227 19.5567 37.094 20.7 37.094 22.072 C 37.094 23.4347 37.332 24.5733 37.808 25.488 C 38.284 26.4027 38.9933 26.86 39.936 26.86 C 40.2533 26.86 40.566 26.804 40.874 26.692 C 41.1913 26.5707 41.4573 26.398 41.672 26.174 C 42.0173 25.9127 42.2553 25.586 42.386 25.194 C 42.526 24.802 42.6333 24.228 42.708 23.472 L 43.03 23.472 C 43.03 25.1613 43.0487 26.3373 43.086 27 L 42.764 27 C 42.736 26.7013 42.694 26.4913 42.638 26.37 C 42.5913 26.2393 42.5213 26.174 42.428 26.174 C 42.3533 26.174 42.2553 26.2113 42.134 26.286 C 41.714 26.5847 41.3127 26.8133 40.93 26.972 C 40.5473 27.1213 40.0853 27.196 39.544 27.196 C 38.5547 27.196 37.6867 26.9953 36.94 26.594 C 36.2027 26.1927 35.6287 25.614 35.218 24.858 C 34.8073 24.0927 34.602 23.1827 34.602 22.128 C 34.602 21.1013 34.812 20.1913 35.232 19.398 C 35.652 18.6047 36.2353 17.9887 36.982 17.55 C 37.738 17.1113 38.5967 16.892 39.558 16.892 Z M 51.3891 16.892 C 52.3784 16.892 53.2418 17.0927 53.9791 17.494 C 54.7258 17.8953 55.3044 18.4787 55.7151 19.244 C 56.1258 20 56.3311 20.9053 56.3311 21.96 C 56.3311 22.9867 56.1211 23.8967 55.7011 24.69 C 55.2811 25.4833 54.6931 26.0993 53.9371 26.538 C 53.1904 26.9767 52.3364 27.196 51.3751 27.196 C 50.3858 27.196 49.5178 26.9953 48.7711 26.594 C 48.0338 26.1927 47.4598 25.614 47.0491 24.858 C 46.6384 24.0927 46.4331 23.1827 46.4331 22.128 C 46.4331 21.1013 46.6431 20.1913 47.0631 19.398 C 47.4831 18.6047 48.0664 17.9887 48.8131 17.55 C 49.5691 17.1113 50.4278 16.892 51.3891 16.892 Z M 51.3331 17.144 C 50.8198 17.144 50.3671 17.354 49.9751 17.774 C 49.5831 18.1847 49.2798 18.7633 49.0651 19.51 C 48.8598 20.2567 48.7571 21.1107 48.7571 22.072 C 48.7571 23.0427 48.8738 23.8967 49.1071 24.634 C 49.3498 25.3713 49.6718 25.9407 50.0731 26.342 C 50.4838 26.7433 50.9364 26.944 51.4311 26.944 C 51.9444 26.944 52.3971 26.7387 52.7891 26.328 C 53.1811 25.908 53.4798 25.3247 53.6851 24.578 C 53.8998 23.8313 54.0071 22.9773 54.0071 22.016 C 54.0071 21.0453 53.8858 20.1913 53.6431 19.454 C 53.4098 18.7167 53.0878 18.1473 52.6771 17.746 C 52.2758 17.3447 51.8278 17.144 51.3331 17.144 Z M 68.4853 17.368 C 68.1773 17.4147 67.9486 17.494 67.7993 17.606 C 67.6593 17.718 67.5613 17.8953 67.5053 18.138 C 67.4586 18.3807 67.4353 18.74 67.4353 19.216 L 67.4353 27.028 L 67.0993 27.014 L 66.7213 27.028 L 60.6453 19.328 L 60.6453 24.704 C 60.6453 25.2547 60.6733 25.6607 60.7293 25.922 C 60.7853 26.174 60.9066 26.3607 61.0933 26.482 C 61.2799 26.594 61.5833 26.6733 62.0033 26.72 L 62.0033 27 C 61.6393 26.972 61.1353 26.958 60.4913 26.958 C 59.9779 26.958 59.5719 26.972 59.2733 27 L 59.2733 26.72 C 59.5813 26.6733 59.8053 26.594 59.9453 26.482 C 60.0946 26.37 60.1926 26.1927 60.2393 25.95 C 60.2953 25.7073 60.3233 25.348 60.3233 24.872 L 60.3233 18.572 C 60.3233 18.2173 60.2953 17.9607 60.2393 17.802 C 60.1926 17.6433 60.0946 17.536 59.9453 17.48 C 59.8053 17.424 59.5813 17.3867 59.2733 17.368 L 59.2733 17.088 C 59.5719 17.116 59.9779 17.13 60.4913 17.13 C 60.9579 17.13 61.3593 17.116 61.6953 17.088 L 67.1133 23.766 L 67.1133 19.384 C 67.1133 18.8333 67.0853 18.432 67.0293 18.18 C 66.9733 17.9187 66.8519 17.732 66.6653 17.62 C 66.4786 17.4987 66.1753 17.4147 65.7553 17.368 L 65.7553 17.088 C 66.1193 17.116 66.6233 17.13 67.2673 17.13 C 67.7899 17.13 68.1959 17.116 68.4853 17.088 L 68.4853 17.368 Z M 81.6991 26.902 C 81.5404 27.9567 81.2184 28.6847 80.7331 29.086 C 80.5278 29.254 80.2664 29.3847 79.9491 29.478 C 79.6411 29.5807 79.3004 29.632 78.9271 29.632 C 78.4231 29.632 77.9238 29.5527 77.4291 29.394 C 76.9438 29.2353 76.3418 28.9973 75.6231 28.68 C 75.4458 28.6053 75.2498 28.5213 75.0351 28.428 C 74.8298 28.344 74.5964 28.2507 74.3351 28.148 L 73.9991 28.05 C 73.8218 28.1433 73.6258 28.2133 73.4111 28.26 C 73.2058 28.316 73.0098 28.344 72.8231 28.344 C 72.6271 28.344 72.4684 28.3113 72.3471 28.246 C 72.2258 28.19 72.1651 28.1013 72.1651 27.98 C 72.1651 27.728 72.4218 27.602 72.9351 27.602 C 73.2804 27.602 73.6351 27.6673 73.9991 27.798 C 74.3164 27.7047 74.6524 27.5787 75.0071 27.42 C 75.0724 27.392 75.1704 27.35 75.3011 27.294 C 75.4318 27.2473 75.5484 27.2053 75.6511 27.168 C 74.7831 27.084 74.0224 26.832 73.3691 26.412 C 72.7251 25.9827 72.2258 25.404 71.8711 24.676 C 71.5258 23.948 71.3531 23.0987 71.3531 22.128 C 71.3531 21.1013 71.5631 20.1913 71.9831 19.398 C 72.4031 18.6047 72.9864 17.9887 73.7331 17.55 C 74.4891 17.1113 75.3478 16.892 76.3091 16.892 C 77.2984 16.892 78.1618 17.0927 78.8991 17.494 C 79.6458 17.8953 80.2244 18.4787 80.6351 19.244 C 81.0458 20 81.2511 20.9053 81.2511 21.96 C 81.2511 22.9493 81.0551 23.836 80.6631 24.62 C 80.2711 25.3947 79.7204 26.006 79.0111 26.454 C 78.3018 26.902 77.4944 27.1447 76.5891 27.182 C 76.3651 27.21 76.1644 27.252 75.9871 27.308 C 75.8098 27.364 75.5998 27.4433 75.3571 27.546 C 75.0584 27.6767 74.7691 27.784 74.4891 27.868 L 75.6231 27.966 C 76.8084 28.0687 77.6624 28.12 78.1851 28.12 C 78.5304 28.12 78.8804 28.0967 79.2351 28.05 C 79.8138 27.9847 80.2711 27.8587 80.6071 27.672 C 80.9431 27.4947 81.2231 27.2147 81.4471 26.832 L 81.6991 26.902 Z M 73.6771 22.072 C 73.6771 23.0427 73.7938 23.8967 74.0271 24.634 C 74.2698 25.3713 74.5918 25.9407 74.9931 26.342 C 75.4038 26.7433 75.8564 26.944 76.3511 26.944 C 76.8644 26.944 77.3171 26.7387 77.7091 26.328 C 78.1011 25.908 78.3998 25.3247 78.6051 24.578 C 78.8198 23.8313 78.9271 22.9773 78.9271 22.016 C 78.9271 21.0453 78.8058 20.1913 78.5631 19.454 C 78.3298 18.7167 78.0078 18.1473 77.5971 17.746 C 77.1958 17.3447 76.7478 17.144 76.2531 17.144 C 75.7398 17.144 75.2871 17.354 74.8951 17.774 C 74.5031 18.1847 74.1998 18.7633 73.9851 19.51 C 73.7798 20.2567 73.6771 21.1107 73.6771 22.072 Z M 93.1383 17.368 C 92.8303 17.4147 92.6016 17.494 92.4523 17.606 C 92.3123 17.718 92.2143 17.8953 92.1583 18.138 C 92.1116 18.3807 92.0883 18.74 92.0883 19.216 L 92.0883 22.926 C 92.0883 24.2607 91.897 25.25 91.5143 25.894 C 91.2623 26.3047 90.8983 26.6267 90.4223 26.86 C 89.9463 27.084 89.363 27.196 88.6723 27.196 C 87.5896 27.196 86.7496 26.9627 86.1523 26.496 C 85.723 26.1507 85.4336 25.7167 85.2843 25.194 C 85.135 24.662 85.0603 23.92 85.0603 22.968 L 85.0603 18.572 C 85.0603 18.2173 85.0323 17.9607 84.9763 17.802 C 84.9296 17.6433 84.8316 17.536 84.6823 17.48 C 84.5423 17.424 84.3183 17.3867 84.0103 17.368 L 84.0103 17.088 C 84.4863 17.116 85.2143 17.13 86.1943 17.13 C 87.165 17.13 87.907 17.116 88.4203 17.088 L 88.4203 17.368 C 88.0843 17.3867 87.837 17.424 87.6783 17.48 C 87.529 17.536 87.4263 17.6433 87.3703 17.802 C 87.3143 17.9607 87.2863 18.2173 87.2863 18.572 L 87.2863 23.85 C 87.2863 24.83 87.4263 25.5533 87.7063 26.02 C 87.9956 26.4773 88.4996 26.706 89.2183 26.706 C 90.1516 26.706 90.8096 26.3933 91.1923 25.768 C 91.575 25.1333 91.7663 24.2373 91.7663 23.08 L 91.7663 19.384 C 91.7663 18.8427 91.7336 18.4413 91.6683 18.18 C 91.603 17.9187 91.477 17.732 91.2903 17.62 C 91.1036 17.4987 90.8096 17.4147 90.4083 17.368 L 90.4083 17.088 C 90.763 17.116 91.267 17.13 91.9203 17.13 C 92.443 17.13 92.849 17.116 93.1383 17.088 L 93.1383 17.368 Z M 103.505 24.872 C 103.505 25.7307 103.537 26.44 103.603 27 C 102.968 26.972 101.899 26.958 100.397 26.958 C 98.362 26.958 96.8406 26.972 95.8326 27 L 95.8326 26.72 C 96.1406 26.7013 96.3646 26.664 96.5046 26.608 C 96.654 26.552 96.752 26.4447 96.7986 26.286 C 96.8546 26.1273 96.8826 25.8707 96.8826 25.516 L 96.8826 18.572 C 96.8826 18.2173 96.8546 17.9607 96.7986 17.802 C 96.752 17.6433 96.654 17.536 96.5046 17.48 C 96.3646 17.424 96.1406 17.3867 95.8326 17.368 L 95.8326 17.088 C 96.8406 17.116 98.362 17.13 100.397 17.13 C 101.769 17.13 102.744 17.116 103.323 17.088 C 103.257 17.8627 103.225 18.5533 103.225 19.16 C 103.225 19.5707 103.239 19.888 103.267 20.112 L 102.945 20.112 C 102.805 19.1133 102.553 18.4133 102.189 18.012 C 101.825 17.6107 101.311 17.41 100.649 17.41 L 100.075 17.41 C 99.7853 17.41 99.5753 17.4333 99.4446 17.48 C 99.314 17.5267 99.2253 17.62 99.1786 17.76 C 99.132 17.8907 99.1086 18.1053 99.1086 18.404 L 99.1086 21.876 L 99.5566 21.876 C 100.051 21.876 100.425 21.694 100.677 21.33 C 100.938 20.966 101.12 20.532 101.223 20.028 L 101.545 20.028 C 101.517 20.42 101.503 20.8587 101.503 21.344 L 101.503 22.016 C 101.503 22.492 101.531 23.1547 101.587 24.004 L 101.265 24.004 C 101.069 22.772 100.499 22.156 99.5566 22.156 L 99.1086 22.156 L 99.1086 25.684 C 99.1086 25.9827 99.132 26.202 99.1786 26.342 C 99.2253 26.4727 99.314 26.5613 99.4446 26.608 C 99.5753 26.6547 99.7853 26.678 100.075 26.678 L 100.761 26.678 C 101.423 26.678 101.955 26.454 102.357 26.006 C 102.767 25.5487 103.057 24.7787 103.225 23.696 L 103.547 23.696 C 103.519 24.004 103.505 24.396 103.505 24.872 Z M 110.166 16.906 C 110.651 16.906 111.038 16.9527 111.328 17.046 C 111.617 17.1393 111.911 17.2747 112.21 17.452 C 112.312 17.508 112.401 17.5547 112.476 17.592 C 112.56 17.6293 112.63 17.648 112.686 17.648 C 112.77 17.648 112.835 17.6013 112.882 17.508 C 112.928 17.4053 112.966 17.2467 112.994 17.032 L 113.316 17.032 C 113.269 17.6573 113.246 18.7213 113.246 20.224 L 112.924 20.224 C 112.886 19.72 112.77 19.2393 112.574 18.782 C 112.387 18.3247 112.116 17.956 111.762 17.676 C 111.416 17.3867 111.01 17.242 110.544 17.242 C 110.086 17.242 109.713 17.3727 109.424 17.634 C 109.144 17.886 109.004 18.2313 109.004 18.67 C 109.004 18.9967 109.074 19.2813 109.214 19.524 C 109.354 19.7667 109.55 19.9907 109.802 20.196 C 110.054 20.392 110.441 20.6627 110.964 21.008 L 111.412 21.316 C 111.962 21.68 112.396 21.9973 112.714 22.268 C 113.031 22.5387 113.288 22.856 113.484 23.22 C 113.689 23.5747 113.792 23.99 113.792 24.466 C 113.792 25.0633 113.638 25.5673 113.33 25.978 C 113.022 26.3793 112.602 26.6827 112.07 26.888 C 111.547 27.0933 110.964 27.196 110.32 27.196 C 109.797 27.196 109.363 27.1493 109.018 27.056 C 108.672 26.9627 108.355 26.8367 108.066 26.678 C 107.86 26.5473 107.702 26.482 107.59 26.482 C 107.506 26.482 107.44 26.5333 107.394 26.636 C 107.347 26.7293 107.31 26.8833 107.282 27.098 L 106.96 27.098 C 106.997 26.51 107.016 25.25 107.016 23.318 L 107.338 23.318 C 107.403 24.3633 107.636 25.2127 108.038 25.866 C 108.439 26.51 109.055 26.832 109.886 26.832 C 110.39 26.832 110.805 26.6967 111.132 26.426 C 111.458 26.1553 111.622 25.768 111.622 25.264 C 111.622 24.7413 111.454 24.2933 111.118 23.92 C 110.782 23.5467 110.25 23.1267 109.522 22.66 C 108.962 22.296 108.514 21.9787 108.178 21.708 C 107.842 21.4373 107.566 21.12 107.352 20.756 C 107.137 20.3827 107.03 19.9533 107.03 19.468 C 107.03 18.908 107.17 18.4367 107.45 18.054 C 107.739 17.662 108.122 17.3727 108.598 17.186 C 109.074 16.9993 109.596 16.906 110.166 16.906 Z M 125.313 17.088 C 125.248 17.9747 125.215 18.768 125.215 19.468 C 125.215 19.9067 125.229 20.2613 125.257 20.532 L 124.935 20.532 C 124.711 19.384 124.403 18.5767 124.011 18.11 C 123.629 17.6433 123.101 17.41 122.429 17.41 L 122.107 17.41 L 122.107 25.404 C 122.107 25.796 122.145 26.0807 122.219 26.258 C 122.303 26.4353 122.443 26.5567 122.639 26.622 C 122.845 26.678 123.167 26.7107 123.605 26.72 L 123.605 27 C 122.429 26.972 121.543 26.958 120.945 26.958 C 120.357 26.958 119.503 26.972 118.383 27 L 118.383 26.72 C 118.822 26.7107 119.139 26.678 119.335 26.622 C 119.541 26.5567 119.681 26.4353 119.755 26.258 C 119.839 26.0807 119.881 25.796 119.881 25.404 L 119.881 17.41 L 119.573 17.41 C 119.125 17.41 118.743 17.508 118.425 17.704 C 118.117 17.9 117.851 18.2267 117.627 18.684 C 117.403 19.132 117.212 19.748 117.053 20.532 L 116.731 20.532 C 116.759 20.2613 116.773 19.9067 116.773 19.468 C 116.773 18.768 116.741 17.9747 116.675 17.088 C 117.525 17.116 118.967 17.13 121.001 17.13 C 123.036 17.13 124.473 17.116 125.313 17.088 Z" stroke-linecap="round" />
</g>
		<g transform="matrix(1 0 0 1 -48 -0.48)" id="bKEcGTLk_f9DExcaeVi0o"  >
<linearGradient id="SVGID_0" gradientUnits="userSpaceOnUse" gradientTransform="matrix(1 0 0 1 0 0)"  x1="4.91415" y1="15.338" x2="31.354" y2="16.9979">
<stop offset="28.8448%" style="stop-color:rgb(255,255,255);stop-opacity: 1"/>
<stop offset="78.0176%" style="stop-color:rgb(255,255,255);stop-opacity: 0"/>
</linearGradient>
<path style="stroke: url(#SVGID_0); stroke-width: 2; stroke-dasharray: none; stroke-linecap: butt; stroke-dashoffset: 0; stroke-linejoin: miter; stroke-miterlimit: 4; fill: none; fill-rule: nonzero; opacity: 1;" vector-effect="non-scaling-stroke"  transform=" translate(-17, -17.02)" d="M 28.0281 20.2514 C 27.2874 22.5859 25.6488 25.4738 22.4601 27.1836 C 20.5758 28.194 18.5387 28.6283 16.5481 28.5485 L 16.6022 5.48841 C 17.1984 5.48867 17.9131 5.51848 18.6442 5.60154 C 18.9947 5.64137 19.338 5.69231 19.6664 5.75501 C 20.3908 5.92715 21.0981 6.16871 21.7774 6.47653 C 24.0085 7.48751 25.9361 9.21181 27.1835 11.5383 C 28.2129 13.4579 28.6441 15.5354 28.5435 17.5607 C 28.5011 18.2443 28.3458 19.1969 28.0281 20.2514 Z M 14.6016 5.75158 L 14.5487 28.2928 C 11.3558 27.5984 8.47862 25.5631 6.81481 22.4602 C 3.79881 16.8355 5.91356 9.83085 11.5382 6.81486 C 12.1905 6.4651 13.2788 6.03231 14.6016 5.75158 Z" stroke-linecap="round" />
</g>
</g>
</g>
</svg>